# xmcd
#
# Track frame offsets:
# 150
# 14289
# 29125
# 45581
# 63878
# 76609
# 90989
# 104766
# 117764
# 133635
# 152859
# 172967
#
# Disc length: 2745 seconds
#
#
# Revision: 0
# Processed by: cddbd v1.5.1PL2 Copyright (c) Steve Scherf et al.
# Submitted via: FreeRIP 2.945 
#
DISCID=8e0ab70c
DTITLE=Mike Brosnan - Beneath Southland Skies
DYEAR=2005
DGENRE=roots/ americana
TTITLE0=Letter to a friend
TTITLE1=Nowhere to run
TTITLE2=Gonna run away
TTITLE3=Be with you
TTITLE4=Time to settle down
TTITLE5=Dave said
TTITLE6=Beneath southland skies
TTITLE7=Another song for the road
TTITLE8=Through falling tears
TTITLE9=Never thought I'd cry
TTITLE10=Quiet desperation
TTITLE11=Long gone
EXTD=
EXTT0=
EXTT1=
EXTT2=
EXTT3=
EXTT4=
EXTT5=
EXTT6=
EXTT7=
EXTT8=
EXTT9=
EXTT10=
EXTT11=
PLAYORDER=
